name analog
datacolumns 19
datarows 46
range 0.0 0.0225
endheader
time	ground_force_vx	ground_force_vy	ground_force_vz	ground_force_px	ground_force_py	ground_force_pz	l_ground_force_vx	l_ground_force_vy	l_ground_force_vz	l_ground_force_px	l_ground_force_py	l_ground_force_pz	ground_torque_x	ground_torque_y	ground_torque_z	l_ground_torque_x	l_ground_torque_y	l_ground_torque_z
0.0	-0.0	-0.0	-0.0	0.356842041015625	17.92710304260254	-301.560791015625	-4.612960815429688	-27.00047874450684	-321.7125549316406	-0.0	-0.0	-0.0	-0.0	-0.0	-0.0	108075.453125	-1377.882568359375	-3684.97021484375
0.0005	-0.0	-0.0	-0.0	0.8799828886985779	17.80040740966797	-302.2740478515625	-4.262690544128418	-27.161975860595703	-321.42413330078125	-0.0	-0.0	-0.0	-0.0	-0.0	-0.0	107586.7578125	-1482.0045166015625	-3679.577880859375
0.001	-0.0	-0.0	-0.0	0.5865761637687683	17.761409759521484	-303.0815124511719	-4.357659816741943	-26.53741455078125	-321.3216552734375	-0.0	-0.0	-0.0	-0.0	-0.0	-0.0	107571.3203125	-1456.1568603515625	-3782.231689453125
0.0015	-0.0	-0.0	-0.0	0.0380107015371322	17.978763580322266	-304.1893005371094	-4.805285930633545	-26.183847427368164	-321.67059326171875	-0.0	-0.0	-0.0	-0.0	-0.0	-0.0	107576.3359375	-1422.6107177734375	-3709.411376953125
0.002	-0.0	-0.0	-0.0	0.2802609205245971	18.23361015319824	-305.0464172363281	-4.498418807983398	-26.382465362548828	-318.9787902832031	-0.0	-0.0	-0.0	-0.0	-0.0	-0.0	107472.75	-1578.568359375	-3984.881591796875
0.0025	-0.0	-0.0	-0.0	0.3950768113136291	18.36086845397949	-305.4501953125	-4.84196662902832	-26.268505096435547	-317.08660888671875	-0.0	-0.0	-0.0	-0.0	-0.0	-0.0	106768.9296875	-1532.5941162109375	-3918.188720703125
0.003	-0.0	-0.0	-0.0	0.280081033706665	18.310077667236328	-305.2973937988281	-4.956252098083496	-25.715717315673828	-317.7279663085937	-0.0	-0.0	-0.0	-0.0	-0.0	-0.0	106368.328125	-1199.1505126953125	-4082.630615234375
0.0035	-0.0	-0.0	-0.0	0.3953021466732025	18.09347152709961	-304.74249267578125	-5.042505264282227	-25.61328887939453	-316.33135986328125	-0.0	-0.0	-0.0	-0.0	-0.0	-0.0	105712.109375	-1303.7535400390625	-4117.00146484375
0.004	-0.0	-0.0	-0.0	0.1265936493873596	18.60414695739746	-307.9204406738281	-5.399518966674805	-25.18734169006348	-313.0492248535156	-0.0	-0.0	-0.0	-0.0	-0.0	-0.0	105403.171875	-1183.417724609375	-4285.81787109375
0.0045000000000000005	-0.0	-0.0	-0.0	0.1649481207132339	18.79305458068848	-307.4131164550781	-4.969243049621582	-25.24799919128418	-312.046630859375	-0.0	-0.0	-0.0	-0.0	-0.0	-0.0	104566.765625	-1134.179931640625	-4285.60009765625
0.005	-0.0	-0.0	-0.0	0.2424248307943344	18.820093154907227	-307.8271484375	-5.2472758293151855	-25.336204528808597	-310.7928771972656	-0.0	-0.0	-0.0	-0.0	-0.0	-0.0	104193.6875	-1033.6046142578125	-4378.921875
0.0055	-0.0	-0.0	-0.0	0.3430823981761932	19.037397384643555	-309.7839050292969	-5.563323020935059	-25.07107162475586	-308.4010925292969	-0.0	-0.0	-0.0	-0.0	-0.0	-0.0	103762.3203125	-968.84033203125	-4286.0732421875
0.006	-0.0	-0.0	-0.0	0.1644428074359893	19.05994033813477	-311.77001953125	-5.449567317962647	-24.957260131835938	-306.8537902832031	-0.0	-0.0	-0.0	-0.0	-0.0	-0.0	103010.1640625	-971.40087890625	-4366.62890625
0.006500000000000001	-0.0	-0.0	-0.0	0.2175550162792205	19.391328811645508	-313.9769897460937	-5.664814472198486	-24.881486892700195	-307.4030456542969	-0.0	-0.0	-0.0	-0.0	-0.0	-0.0	102657.296875	-974.7789306640624	-4455.71630859375
0.007	-0.0	-0.0	-0.0	0.5352630615234375	19.28409194946289	-314.5278015136719	-5.753308296203613	-24.704910278320312	-304.9575500488281	-0.0	-0.0	-0.0	-0.0	-0.0	-0.0	102221.125	-1005.3681030273438	-4523.61181640625
0.0075	-0.0	-0.0	-0.0	0.1823576539754867	19.4409122467041	-317.2127380371094	-5.727957725524902	-24.89454460144043	-305.7094116210937	-0.0	-0.0	-0.0	-0.0	-0.0	-0.0	102119.328125	-978.773681640625	-4540.81982421875
0.008	-0.0	-0.0	-0.0	-0.3362981081008911	19.76210021972656	-318.5682983398437	-5.930446624755859	-24.326648712158203	-303.86102294921875	-0.0	-0.0	-0.0	-0.0	-0.0	-0.0	102096.4609375	-1023.4976806640624	-4527.75
0.0085	-0.0	-0.0	-0.0	-0.0148172453045845	19.683013916015625	-319.98101806640625	-6.007227420806885	-24.136816024780277	-301.31787109375	-0.0	-0.0	-0.0	-0.0	-0.0	-0.0	101649.640625	-804.435546875	-4472.8828125
0.009000000000000001	-0.0	-0.0	-0.0	-0.3073250949382782	19.737476348876957	-320.17706298828125	-5.7912678718566895	-24.0484561920166	-301.2646789550781	-0.0	-0.0	-0.0	-0.0	-0.0	-0.0	101248.59375	-958.2158813476562	-4519.1611328125
0.0095	-0.0	-0.0	-0.0	-0.2429289072751999	19.6882266998291	-319.66583251953125	-6.043667793273926	-23.720014572143555	-300.9686889648437	-0.0	-0.0	-0.0	-0.0	-0.0	-0.0	100918.7109375	-981.179931640625	-4591.5224609375
0.01	-0.0	-0.0	-0.0	-0.2276805490255355	19.786949157714844	-321.6494445800781	-6.223649024963379	-23.670211791992188	-299.8665466308594	-0.0	-0.0	-0.0	-0.0	-0.0	-0.0	100529.296875	-866.051513671875	-4595.37939453125
0.0105	-0.0	-0.0	-0.0	0.1292396336793899	19.722387313842773	-324.7557373046875	-6.312476634979248	-23.47961807250977	-298.3286437988281	-0.0	-0.0	-0.0	-0.0	-0.0	-0.0	100393.765625	-1164.2366943359375	-4621.390625
0.011	-0.0	-0.0	-0.0	-0.3636382222175598	19.81144523620605	-324.2811889648437	-5.993277549743652	-23.316925048828125	-297.7286376953125	-0.0	-0.0	-0.0	-0.0	-0.0	-0.0	100025.03125	-895.6744384765625	-4712.494140625
0.0115	-0.0	-0.0	-0.0	-0.5510374307632446	19.958147048950195	-324.4754638671875	-6.337599277496338	-23.39096450805664	-296.4861755371094	-0.0	-0.0	-0.0	-0.0	-0.0	-0.0	99925.1796875	-737.954833984375	-4715.24951171875
0.012	-0.0	-0.0	-0.0	-0.2761097550392151	19.99808120727539	-325.63189697265625	-6.06728458404541	-23.302474975585938	-296.08056640625	-0.0	-0.0	-0.0	-0.0	-0.0	-0.0	99827.84375	-974.575927734375	-4560.51904296875
0.0125	-0.0	-0.0	-0.0	-0.3973539173603058	20.18394660949707	-328.0401916503906	-6.564598083496094	-23.37080955505371	-294.431884765625	-0.0	-0.0	-0.0	-0.0	-0.0	-0.0	99441.8515625	-604.9006958007812	-4794.76171875
0.013000000000000001	-0.0	-0.0	-0.0	-0.3162505030632019	20.50823974609375	-328.6180725097656	-6.372326850891113	-23.316925048828125	-294.6839599609375	-0.0	-0.0	-0.0	-0.0	-0.0	-0.0	99068.484375	-810.8009033203125	-4743.50244140625
0.0135	-0.0	-0.0	-0.0	0.0329026579856872	20.29750061035156	-330.44952392578125	-6.87985897064209	-23.301973342895508	-292.744873046875	-0.0	-0.0	-0.0	-0.0	-0.0	-0.0	98846.6171875	-596.9312744140625	-4824.60009765625
0.014	-0.0	-0.0	-0.0	0.1950909346342086	19.80360412597656	-328.58282470703125	-6.653308868408203	-22.93330192565918	-293.0346069335937	-0.0	-0.0	-0.0	-0.0	-0.0	-0.0	98605.9765625	-658.5631103515625	-4896.93359375
0.0145	-0.0	-0.0	-0.0	0.7546126246452332	19.909624099731445	-329.0681457519531	-7.072410106658936	-22.850971221923828	-291.7341003417969	-0.0	-0.0	-0.0	-0.0	-0.0	-0.0	98468.4375	-808.4542236328125	-4923.8447265625
0.015	-0.0	-0.0	-0.0	0.5593311786651611	19.44453811645508	-329.3542785644531	-6.983771800994873	-22.99668312072754	-291.7335510253906	-0.0	-0.0	-0.0	-0.0	-0.0	-0.0	98266.8046875	-618.9214477539062	-5010.671875
0.0155	-0.0	-0.0	-0.0	0.9710973501205444	19.680709838867188	-331.092529296875	-7.176918983459473	-22.44932556152344	-290.8092346191406	-0.0	-0.0	-0.0	-0.0	-0.0	-0.0	97899.2421875	-698.2696533203125	-4999.6103515625
0.016	-0.0	-0.0	-0.0	1.1424444913864136	19.786949157714844	-331.9891357421875	-6.903586864471436	-22.409528732299805	-289.70025634765625	-0.0	-0.0	-0.0	-0.0	-0.0	-0.0	97896.2578125	-635.7347412109375	-4991.34130859375
0.0165	-0.0	-0.0	-0.0	1.6471998691558838	19.436811447143555	-330.2232666015625	-7.10500431060791	-22.65045928955078	-289.6373291015625	-0.0	-0.0	-0.0	-0.0	-0.0	-0.0	97711.46875	-425.114501953125	-5077.98291015625
0.017	-0.0	-0.0	-0.0	1.581928849220276	19.524721145629883	-331.1883239746094	-7.088656902313232	-22.481843948364254	-288.494384765625	-0.0	-0.0	-0.0	-0.0	-0.0	-0.0	97611.390625	-683.5806274414062	-4964.646484375
0.0175	-0.0	-0.0	-0.0	1.7127968072891235	18.96699523925781	-332.5774841308594	-7.015913963317871	-22.48945999145508	-287.9857177734375	-0.0	-0.0	-0.0	-0.0	-0.0	-0.0	97581.5390625	-489.3188781738281	-4940.40185546875
0.018000000000000002	-0.0	-0.0	-0.0	1.813657641410828	19.157325744628903	-331.21148681640625	-6.94348669052124	-22.209184646606445	-287.351806640625	-0.0	-0.0	-0.0	-0.0	-0.0	-0.0	97283.7890625	-512.1112060546875	-4867.44140625
0.0185	-0.0	-0.0	-0.0	1.6642935276031494	18.49178123474121	-331.9173583984375	-6.749336242675781	-22.16874313354492	-287.25732421875	-0.0	-0.0	-0.0	-0.0	-0.0	-0.0	97094.4375	-660.224609375	-4818.45166015625
0.019	-0.0	-0.0	-0.0	1.980982780456543	18.51026153564453	-334.7002258300781	-6.540663719177246	-21.93460273742676	-287.2575988769531	-0.0	-0.0	-0.0	-0.0	-0.0	-0.0	97053.0	-839.0400390625	-4867.1220703125
0.0195	-0.0	-0.0	-0.0	1.831370234489441	18.60980033874512	-332.86199951171875	-6.547572135925293	-22.03968048095703	-287.5398864746094	-0.0	-0.0	-0.0	-0.0	-0.0	-0.0	96708.84375	-928.91259765625	-4721.14306640625
0.02	-0.0	-0.0	-0.0	1.592037796974182	18.187484741210938	-335.0552978515625	-6.3394975662231445	-22.450824737548828	-286.65350341796875	-0.0	-0.0	-0.0	-0.0	-0.0	-0.0	96835.140625	-971.4454956054688	-4724.57080078125
0.0205	-0.0	-0.0	-0.0	1.6292405128479004	18.206031799316406	-334.7763366699219	-6.428353309631348	-22.528358459472656	-286.7220153808594	-0.0	-0.0	-0.0	-0.0	-0.0	-0.0	96849.1484375	-926.69677734375	-4665.42236328125
0.021	-0.0	-0.0	-0.0	1.8544468879699707	18.131385803222656	-336.41265869140625	-6.3747735023498535	-22.651424407958984	-286.2353515625	-0.0	-0.0	-0.0	-0.0	-0.0	-0.0	96248.296875	-1067.1527099609375	-4610.287109375
0.021500000000000002	-0.0	-0.0	-0.0	1.8692055940628047	18.47332763671875	-335.8407592773437	-6.02635383605957	-22.804611206054688	-286.4906616210937	-0.0	-0.0	-0.0	-0.0	-0.0	-0.0	96428.2109375	-1249.391357421875	-4473.5166015625
0.022	-0.0	-0.0	-0.0	1.6949996948242188	18.3143367767334	-335.5364990234375	-5.68317985534668	-22.42804336547852	-285.1640014648437	-0.0	-0.0	-0.0	-0.0	-0.0	-0.0	96410.7734375	-1168.848876953125	-4490.91162109375
0.0225	-0.0	-0.0	-0.0	1.629032850265503	18.314416885375977	-335.2746887207031	-5.2574968338012695	-22.345386505126957	-285.25689697265625	-0.0	-0.0	-0.0	-0.0	-0.0	-0.0	96186.515625	-1323.53466796875	-4383.93603515625
